<svg width="49" height="58" viewBox="0 0 49 58" fill="none" xmlns="http://www.w3.org/2000/svg">
<path d="M46.4711 24.2919C46.4711 41.5239 24.4289 56.2942 24.4289 56.2942C24.4289 56.2942 2.38672 41.5239 2.38672 24.2919C2.38672 18.4159 4.70901 12.7806 8.84273 8.62565C12.9764 4.4707 18.583 2.13647 24.4289 2.13647C30.2749 2.13647 35.8814 4.4707 40.0151 8.62565C44.1488 12.7806 46.4711 18.4159 46.4711 24.2919Z" stroke="#C82132" stroke-width="3.31818" stroke-linecap="round" stroke-linejoin="round"/>
<path d="M24.4295 31.677C28.4873 31.677 31.7769 28.3706 31.7769 24.2919C31.7769 20.2132 28.4873 16.9067 24.4295 16.9067C20.3716 16.9067 17.082 20.2132 17.082 24.2919C17.082 28.3706 20.3716 31.677 24.4295 31.677Z" stroke="#C82132" stroke-width="3.31818" stroke-linecap="round" stroke-linejoin="round"/>
</svg>
