<?xml version="1.0" standalone="no"?>
<!DOCTYPE svg PUBLIC "-//W3C//DTD SVG 20010904//EN"
 "http://www.w3.org/TR/2001/REC-SVG-20010904/DTD/svg10.dtd">
<svg version="1.0" xmlns="http://www.w3.org/2000/svg"
 width="883.000000pt" height="1431.000000pt" viewBox="0 0 883.000000 1431.000000"
 preserveAspectRatio="xMidYMid meet">

<g transform="translate(0.000000,1431.000000) scale(0.100000,-0.100000)"
fill="#000000" stroke="none">
<path d="M7225 14286 c-66 -29 -109 -100 -227 -381 -95 -225 -146 -406 -180
-630 -28 -192 -5 -683 43 -920 21 -102 77 -290 85 -283 2 2 -1 20 -6 38 -12
41 -40 239 -40 278 0 18 3 23 9 14 4 -8 11 33 15 99 8 133 28 277 57 409 46
209 120 491 159 605 41 121 135 325 149 325 16 0 21 -167 21 -705 0 -664 1
-656 -97 -848 -132 -261 -199 -334 -461 -512 -131 -89 -197 -126 -273 -156
-312 -122 -676 -348 -1008 -628 -222 -187 -349 -326 -498 -547 -93 -137 -186
-365 -268 -659 -80 -287 -105 -454 -112 -758 l-6 -239 -43 -56 c-60 -81 -72
-86 -130 -61 -36 16 -57 19 -92 14 -46 -7 -128 -40 -137 -55 -6 -9 -64 5 -76
17 -4 5 -13 46 -19 93 -19 149 -41 243 -77 335 -42 105 -222 436 -293 539
-216 313 -766 739 -1152 893 -24 9 -62 31 -85 49 -39 30 -96 55 -153 68 -27 6
-241 164 -380 280 -47 39 -231 215 -410 391 -179 176 -374 366 -435 420 -60
55 -137 129 -172 164 l-63 65 0 180 c0 227 17 729 30 901 20 257 60 526 86
577 24 46 55 86 71 92 64 25 166 -178 203 -403 28 -170 51 -388 45 -424 -6
-35 -50 -457 -60 -577 -7 -92 9 -276 29 -325 15 -35 126 -195 126 -181 0 4
-21 47 -47 97 -38 73 -48 102 -51 154 -6 95 14 241 73 530 81 398 89 468 82
723 -7 253 -21 333 -76 448 -47 98 -92 150 -163 189 -43 24 -65 30 -118 29
-78 0 -129 -23 -183 -83 -95 -106 -135 -257 -178 -678 -20 -202 -19 -118 1
162 19 248 9 242 -45 -30 l-50 -250 0 -440 c0 -375 3 -453 17 -525 29 -142 25
-207 -16 -350 -87 -293 -165 -522 -268 -783 -120 -306 -153 -418 -223 -771
-81 -410 -89 -478 -89 -771 1 -371 23 -524 109 -743 55 -136 103 -234 161
-324 l43 -67 -42 -11 c-282 -73 -370 -186 -301 -384 8 -21 14 -62 14 -91 0
-64 26 -107 93 -152 123 -82 343 -89 772 -23 72 11 249 36 395 56 146 19 362
51 480 70 353 56 419 65 545 71 97 6 113 8 85 16 -53 13 -429 13 -570 -1 -69
-7 -217 -19 -330 -27 -113 -8 -286 -21 -385 -29 -99 -8 -265 -18 -370 -21
-217 -8 -303 4 -415 57 l-65 30 45 20 c125 54 541 146 895 197 442 64 836 101
1285 121 135 6 393 20 573 31 446 26 400 29 434 -33 15 -29 39 -58 53 -65 15
-8 66 -13 131 -13 140 0 198 20 295 100 76 63 88 69 97 46 3 -8 30 -26 61 -41
97 -48 206 -28 289 53 l37 36 45 -44 c24 -24 43 -45 41 -48 -2 -2 -18 4 -35
12 -49 26 -49 18 0 -17 104 -73 283 -142 343 -130 65 13 164 151 198 276 9 34
18 49 33 52 79 17 1613 234 1840 260 77 9 244 29 370 45 287 37 520 59 695 67
151 7 203 -3 314 -59 85 -43 114 -67 144 -117 20 -35 57 -152 49 -156 -1 -1
-23 -13 -48 -28 -65 -37 -182 -82 -264 -101 -117 -27 -388 -84 -420 -89 -83
-11 54 -6 210 8 208 19 323 38 421 69 40 13 74 21 74 18 0 -3 -12 -20 -26 -39
-37 -49 -161 -139 -262 -190 -97 -50 -67 -52 50 -3 163 67 299 172 328 251 10
27 25 42 67 65 71 38 158 129 172 180 15 52 14 82 -4 140 -11 36 -15 100 -15
239 -1 274 -19 385 -125 755 -133 465 -326 876 -580 1240 -173 247 -407 531
-613 742 l-143 147 65 283 c102 445 127 599 166 1041 30 343 25 641 -15 791
-24 91 -88 219 -132 263 -57 57 -135 76 -198 49z m-308 -1238 c-3 -8 -6 -5 -6
6 -1 11 2 17 5 13 3 -3 4 -12 1 -19z m-20 -590 c-3 -7 -5 -2 -5 12 0 14 2 19
5 13 2 -7 2 -19 0 -25z m480 -912 c110 -105 359 -387 471 -534 307 -403 541
-837 720 -1332 115 -320 162 -511 188 -764 l7 -68 -43 31 c-57 41 -154 71
-265 80 -80 7 -427 -1 -578 -13 -32 -2 -55 0 -51 5 3 5 9 9 14 9 4 0 28 9 52
20 135 61 191 115 206 200 8 42 2 71 -32 150 -4 9 0 24 7 34 13 18 15 17 21
-18 4 -20 18 -52 31 -72 62 -91 57 -154 -17 -226 -28 -27 -62 -54 -76 -59 -14
-5 -22 -12 -20 -15 9 -9 84 35 132 77 36 32 47 50 56 92 11 48 10 59 -14 128
-37 108 -35 127 28 238 30 53 58 113 61 133 9 45 -9 126 -41 190 -13 26 -24
53 -24 60 0 23 -66 150 -123 237 l-55 84 24 34 c96 142 82 338 -34 465 -22 24
-46 57 -55 74 -57 111 -295 233 -512 263 -77 11 -79 12 -134 69 -45 46 -101
83 -179 118 -6 3 122 404 129 404 4 0 51 -42 106 -94z m-373 7 c-6 -65 -49
-292 -57 -299 -2 -2 -39 -13 -81 -24 -101 -26 -173 -67 -262 -152 -71 -67 -72
-68 -127 -68 -78 0 -240 -33 -316 -64 -193 -78 -283 -178 -364 -401 -24 -65
-50 -122 -58 -126 -7 -4 -43 -12 -79 -18 -141 -25 -265 -113 -322 -229 -31
-63 -33 -73 -36 -194 l-4 -128 -41 -10 c-101 -26 -179 -60 -239 -102 l-28 -19
27 78 c35 101 151 330 233 461 36 57 118 172 182 255 136 175 221 250 478 423
85 57 205 141 265 185 61 45 164 113 230 152 66 39 185 111 265 161 140 87
317 185 333 186 4 0 5 -30 1 -67z m-6114 -171 c51 -160 113 -446 98 -451 -45
-16 -121 -117 -143 -191 -4 -14 -17 -35 -28 -47 -18 -20 -30 -23 -97 -23 -67
0 -79 -3 -97 -22 -28 -32 -43 -82 -42 -142 1 -51 1 -51 11 -16 5 19 21 59 34
89 21 46 28 52 47 47 12 -3 32 -6 44 -6 21 0 21 -1 -9 -60 -31 -59 -39 -116
-28 -184 5 -28 2 -30 -53 -48 -155 -50 -266 -181 -313 -368 -17 -69 -15 -174
5 -242 24 -79 91 -152 190 -208 12 -6 8 -14 -20 -36 -75 -61 -148 -147 -185
-221 -32 -62 -39 -88 -42 -147 -5 -88 34 -261 77 -346 27 -53 28 -59 13 -74
-15 -15 -14 -16 10 -16 20 0 33 -11 59 -52 39 -61 75 -97 142 -140 48 -31 50
-41 12 -51 -11 -3 5 -5 35 -4 30 1 64 -4 75 -10 11 -6 45 -18 75 -26 l55 -14
-55 -7 c-30 -4 -109 -16 -175 -28 -66 -11 -136 -22 -156 -25 l-35 -5 -41 88
c-23 49 -53 124 -69 168 -25 72 -26 79 -11 88 24 13 21 25 -5 24 -20 -1 -25
11 -51 109 -29 105 -30 122 -35 365 -7 389 9 530 104 935 115 488 127 527 248
795 115 253 160 365 220 545 26 77 50 147 53 155 7 21 34 -43 83 -198z m385
-220 c55 -47 125 -110 155 -141 30 -32 85 -84 122 -117 l68 -60 -73 3 c-39 2
-106 11 -147 20 -41 9 -88 19 -105 23 -25 5 -32 14 -43 51 -7 24 -33 106 -56
181 -24 76 -38 134 -32 131 6 -4 56 -45 111 -91z m5860 -154 c37 -17 65 -77
81 -176 15 -97 42 -135 104 -152 19 -5 114 -8 210 -7 182 2 284 -13 320 -48
21 -21 22 -381 1 -398 -21 -17 -51 -88 -51 -120 0 -61 36 -100 192 -206 173
-118 214 -215 149 -347 -16 -32 -32 -70 -36 -84 -4 -14 -21 -44 -38 -68 l-31
-42 -30 29 c-40 39 -170 113 -249 142 -34 12 -64 24 -66 25 -2 2 28 34 66 71
38 37 81 92 96 121 62 122 16 264 -100 308 -40 15 -55 16 -124 6 -42 -6 -112
-25 -155 -41 -43 -17 -80 -29 -82 -27 -2 2 2 32 9 65 15 80 7 260 -16 326 -37
107 -86 147 -195 156 -41 4 -97 15 -123 24 -44 16 -51 16 -88 2 -37 -15 -40
-15 -35 1 3 9 14 55 26 102 33 134 91 324 102 337 13 16 30 16 63 1z m-6120
-187 c-3 -6 -11 -11 -17 -11 -6 0 -6 6 2 15 14 17 26 13 15 -4z m5548 -83 c21
-24 51 -58 66 -75 22 -26 36 -33 63 -33 32 0 80 26 100 55 11 15 10 5 -13 -94
l-20 -90 -67 -6 c-132 -12 -198 -26 -259 -56 -73 -35 -116 -80 -140 -148 -16
-46 -20 -50 -43 -44 -14 3 -27 7 -30 8 -3 2 -5 79 -5 172 l0 169 30 49 c38 61
90 103 157 127 76 26 114 18 161 -34z m-5229 -23 c11 -8 32 -15 46 -15 61 0
157 -102 193 -203 20 -56 37 -287 21 -286 -5 0 -31 32 -59 70 -48 67 -136 158
-182 189 -19 13 -25 32 -38 124 -21 151 -21 151 19 121z m488 -96 c26 -15 65
-41 87 -57 l40 -29 -87 -66 c-98 -73 -87 -76 -112 33 -7 30 -27 82 -44 115
-17 33 -32 63 -34 68 -6 12 99 -32 150 -64z m-737 -76 c17 -91 17 -92 -4 -136
-29 -59 -43 -182 -35 -299 4 -54 4 -98 2 -98 -3 0 -23 6 -44 14 -61 21 -145
28 -199 16 -146 -33 -211 -178 -169 -379 l7 -34 -52 29 c-69 37 -97 72 -111
139 -13 62 -7 115 21 191 44 118 117 187 210 200 42 6 48 4 98 -39 30 -25 67
-49 83 -52 74 -17 138 25 138 89 0 41 -22 72 -70 96 -71 36 -118 147 -87 206
17 31 103 118 152 152 37 25 37 24 60 -95z m4225 67 c-11 -16 -26 -33 -32 -36
-7 -4 1 9 16 29 34 44 46 50 16 7z m705 -122 l-3 -93 -31 -3 c-29 -3 -30 -2
-21 25 40 129 52 163 55 163 2 0 2 -42 0 -92z m1049 36 c12 -5 4 -14 -31 -36
-27 -17 -65 -46 -86 -65 -22 -19 -41 -32 -44 -29 -14 14 104 136 131 136 8 0
22 -3 30 -6z m-4834 -214 c-8 -14 -26 -19 -92 -21 -60 -3 -95 -10 -127 -26
-25 -12 -46 -21 -48 -19 -2 2 1 15 6 30 17 42 3 30 -23 -21 -13 -27 -38 -61
-56 -78 -18 -16 -55 -59 -83 -95 -28 -36 -60 -75 -72 -86 l-20 -21 -28 53 -27
54 24 0 c39 0 68 18 104 63 47 59 174 170 260 228 l73 48 59 -46 c49 -37 58
-49 50 -63z m4971 23 c6 -16 13 -73 16 -129 7 -124 -6 -189 -60 -303 -7 -13
-11 -42 -11 -65 1 -31 -6 -51 -30 -85 -40 -56 -74 -111 -82 -134 -4 -12 -12
-16 -23 -11 -28 12 -164 33 -218 33 -59 1 -57 -3 -43 90 22 146 32 200 52 294
21 95 22 97 50 97 47 0 98 34 183 120 73 76 128 120 148 120 4 0 12 -12 18
-27z m-4854 -79 c91 -61 89 -56 57 -144 l-13 -35 0 30 c-2 52 -42 117 -93 150
-41 26 -62 55 -41 55 4 0 44 -25 90 -56z m4355 -6 c-17 -65 -62 -303 -62 -328
0 -12 -10 -30 -22 -41 -21 -17 -21 -18 -4 -19 18 0 19 -6 12 -107 -4 -58 -9
-110 -12 -115 -3 -4 -20 -8 -37 -8 -50 0 -167 -25 -226 -49 -62 -25 -66 -23
-97 48 -14 33 -15 46 -6 49 19 6 14 34 -5 30 -13 -3 -27 10 -45 42 -32 52 -36
80 -10 80 20 0 92 -46 92 -59 0 -16 78 -23 114 -11 43 14 77 66 87 129 24 164
81 297 160 375 60 59 79 54 61 -16z m-5261 -135 c22 -45 42 -88 43 -95 1 -7 7
-22 12 -33 6 -11 23 -55 38 -98 16 -42 32 -80 37 -83 23 -14 5 -20 -38 -13
-27 5 -64 11 -84 14 l-36 5 -12 88 c-7 48 -19 114 -26 147 -7 33 -16 94 -20
135 l-6 75 25 -30 c14 -16 44 -67 67 -112z m4586 94 c9 -10 -41 -66 -58 -66
-23 -1 -66 -37 -56 -47 4 -5 17 -2 28 5 12 7 22 11 24 9 2 -2 5 -37 6 -78 1
-41 6 -83 11 -93 7 -13 3 -28 -14 -55 -44 -70 -55 -115 -54 -210 l1 -91 -68
-3 -67 -3 0 35 c0 19 -13 60 -28 90 -72 141 -80 254 -26 346 63 106 169 179
252 171 24 -3 46 -7 49 -10z m-441 -40 c-83 -108 -104 -239 -66 -392 12 -50
25 -95 27 -102 3 -7 -10 -14 -34 -18 -232 -40 -413 -139 -492 -270 -44 -73
-53 -171 -26 -273 21 -75 87 -186 143 -239 39 -36 148 -92 191 -99 92 -14 209
-11 312 7 94 17 124 18 180 9 37 -5 98 -10 136 -11 96 -1 52 -14 -72 -23 -106
-7 -320 -26 -575 -51 -85 -8 -158 -15 -162 -15 -3 0 -20 23 -38 51 -22 37 -28
55 -21 62 17 17 13 30 -9 24 -16 -4 -29 10 -69 76 -85 144 -115 221 -126 322
-17 168 117 387 272 445 31 12 96 26 143 31 47 6 95 15 108 20 41 16 61 82 65
215 4 135 19 178 82 232 47 42 63 41 31 -1z m647 -21 c18 -7 43 -25 56 -39 19
-21 23 -33 18 -63 -3 -20 -8 -39 -11 -42 -3 -2 -25 0 -48 6 -49 12 -128 1
-164 -23 -44 -29 -56 -20 -48 33 12 82 34 113 94 130 49 14 66 14 103 -2z
m-5039 -60 c21 -72 21 -156 1 -156 -8 0 -15 1 -15 3 -6 41 -11 207 -7 207 3 0
13 -24 21 -54z m910 -33 c-63 -138 -134 -327 -134 -357 0 -7 -6 -18 -12 -24
-17 -14 -125 31 -119 50 4 16 29 115 36 142 5 21 5 21 90 120 52 61 133 126
157 126 4 0 -4 -26 -18 -57z m106 17 c0 -16 -12 -64 -26 -107 -51 -154 -65
-265 -40 -335 7 -21 11 -49 9 -63 -6 -27 -30 -34 -39 -11 -3 7 -27 26 -55 40
-51 28 -55 35 -40 64 5 9 21 46 35 82 15 36 33 78 41 93 8 16 15 33 15 39 0 5
6 24 14 41 8 18 26 67 41 110 29 80 45 98 45 47z m463 -50 c43 -1 63 -8 117
-41 36 -23 56 -38 45 -34 -58 21 -128 35 -202 41 -46 4 -83 9 -83 11 0 2 5 13
10 23 9 16 15 18 36 10 14 -6 49 -10 77 -10z m-1689 -90 c42 -18 76 -35 76
-40 0 -4 -6 -13 -14 -19 -8 -6 -19 -25 -26 -41 -10 -24 -19 -30 -59 -36 -111
-15 -213 -57 -271 -110 l-25 -23 -3 58 c-3 67 24 153 65 201 49 58 133 61 257
10z m6720 -36 c24 -62 -5 -116 -122 -226 -91 -86 -103 -138 -47 -195 12 -11
108 -47 150 -55 14 -3 0 -13 -50 -38 -38 -18 -81 -41 -95 -50 -140 -95 -197
-127 -230 -125 l-34 2 -12 79 c-6 43 -18 93 -27 110 l-16 31 107 91 c59 50
134 119 167 153 l60 62 -50 -28 c-27 -16 -59 -37 -71 -47 -11 -10 -24 -18 -29
-18 -7 0 -39 -28 -182 -153 l-22 -20 -52 47 c-28 25 -55 46 -60 46 -19 0 -8
30 16 46 14 9 25 25 25 35 0 12 14 28 35 40 27 16 33 24 25 34 -23 27 -2 42
54 37 46 -4 66 1 147 37 52 22 111 50 131 61 20 11 43 20 50 20 7 1 31 9 53
20 49 24 71 25 79 4z m-6486 -52 l3 -32 -60 0 c-34 0 -61 4 -61 8 0 13 32 39
60 51 40 16 55 9 58 -27z m1201 2 c21 -10 79 -18 179 -24 151 -9 221 -24 303
-66 l46 -23 7 -85 c11 -140 24 -159 119 -172 57 -8 191 -75 249 -124 54 -46
96 -127 105 -198 4 -40 0 -57 -30 -114 -36 -68 -137 -179 -226 -248 l-44 -34
-378 -1 c-381 -1 -409 1 -359 33 25 15 26 32 3 32 -16 0 -18 14 -18 148 l0
148 62 -13 c35 -7 81 -26 106 -43 78 -52 78 -52 -27 -105 -80 -40 -117 -69
-104 -80 9 -8 48 17 48 29 0 9 16 20 43 26 23 6 65 18 92 26 48 14 51 14 68
-7 17 -21 17 -22 -15 -42 -25 -16 -29 -22 -16 -25 9 -2 26 2 38 8 16 9 25 8
36 -1 25 -20 16 -26 -55 -37 -46 -7 -78 -17 -92 -31 -30 -28 -16 -39 24 -19
46 23 107 31 100 12 -8 -20 27 -18 43 4 12 15 15 15 23 2 5 -8 16 -24 24 -34
13 -18 14 -17 10 11 -6 35 -1 37 82 48 28 3 85 13 128 21 43 9 82 14 87 12 6
-2 1 -21 -10 -42 -11 -22 -18 -42 -16 -44 3 -2 16 19 30 46 21 41 33 53 68 65
24 9 50 18 58 21 8 3 -7 3 -34 -1 -45 -5 -49 -4 -42 13 4 11 9 26 11 34 11 55
18 110 19 139 1 33 4 36 46 47 l45 12 -53 1 c-46 1 -54 4 -62 26 -19 50 -145
122 -231 132 -77 8 -84 14 -59 45 11 14 40 38 65 52 25 15 45 29 45 31 0 3
-23 -4 -51 -15 -47 -19 -50 -19 -45 -3 32 116 -11 206 -121 255 -36 16 -42 22
-32 34 7 9 8 14 1 14 -6 0 -14 -4 -17 -10 -3 -6 -49 -10 -102 -10 -53 0 -136
-5 -185 -11 -49 -7 -91 -9 -95 -6 -5 6 62 157 70 157 2 0 18 -7 36 -16z m3751
-91 c14 -56 27 -96 45 -138 7 -16 16 -44 19 -61 6 -27 2 -33 -36 -61 -67 -49
-163 -148 -194 -199 -14 -23 -37 -9 -28 18 5 17 2 19 -20 16 -19 -2 -37 9 -77
47 -29 28 -48 43 -44 35 15 -28 69 -105 83 -119 12 -13 12 -16 -4 -22 -11 -4
-29 -20 -41 -37 l-22 -30 -91 31 c-87 29 -90 30 -74 48 23 25 14 31 -19 14
-16 -8 -42 -12 -60 -10 l-32 5 30 -15 c17 -9 44 -24 60 -35 31 -20 93 -53 204
-109 l64 -32 -6 -61 c-5 -62 15 -144 49 -196 9 -13 14 -26 11 -28 -2 -2 -28 1
-58 7 -40 9 -49 14 -34 19 12 4 3 7 -25 7 -43 0 -117 30 -164 68 -16 12 -17
18 -8 27 20 20 13 30 -17 23 -27 -6 -33 -1 -69 47 -56 74 -87 190 -72 263 19
92 89 140 230 157 74 8 98 7 142 -5 96 -28 107 -29 137 -8 16 11 34 35 42 53
7 18 21 39 31 46 24 17 23 35 -1 27 -17 -5 -20 1 -25 47 -3 29 -4 71 -2 93 2
22 4 47 5 56 1 21 40 71 50 64 5 -2 14 -26 21 -52z m-2933 -135 c38 -46 82
-100 97 -120 l28 -37 -69 44 c-112 72 -123 82 -123 120 0 19 -4 45 -10 60 -14
37 -2 26 77 -67z m-2004 0 c6 -47 -1 -60 -35 -56 -25 2 -32 10 -43 40 -14 41
-10 44 46 47 23 1 27 -4 32 -31z m422 -6 c100 -19 93 -10 80 -105 -6 -45 -8
-47 -23 -34 -9 8 -45 25 -80 37 l-63 23 31 18 c16 10 30 21 30 24 0 13 -42 3
-60 -15 -18 -18 -25 -18 -75 -8 -57 11 -62 16 -45 49 7 13 7 19 0 19 -17 0
-11 18 8 22 17 4 35 1 197 -30z m-608 -39 c9 -18 10 -30 3 -37 -7 -7 -10 -6
-10 2 0 29 -35 6 -127 -83 -54 -52 -102 -95 -107 -95 -13 0 -76 72 -70 81 3 5
22 14 44 20 21 7 42 19 45 27 8 21 0 25 -24 12 -19 -10 -21 -8 -21 19 0 21 8
35 28 50 32 23 116 57 152 63 29 4 67 -21 87 -59z m1651 -7 c48 -25 64 -50 57
-90 -13 -67 -33 -111 -56 -123 -13 -7 -79 -42 -147 -78 -105 -56 -130 -66
-165 -63 -37 3 -42 6 -42 28 0 14 -9 33 -20 42 -17 15 -18 19 -5 27 9 7 17 6
21 0 8 -14 39 0 39 18 0 11 -7 14 -21 10 -11 -3 -19 -2 -17 2 5 14 82 103 147
173 l64 68 59 0 c33 0 71 -6 86 -14z m-820 -22 c39 -15 42 -18 42 -52 0 -56
-4 -59 -102 -79 -16 -3 -28 -1 -28 4 0 6 11 8 24 6 16 -3 25 1 30 12 6 16 1
17 -44 13 -27 -3 -50 -2 -50 1 0 4 9 31 20 61 11 30 20 56 20 58 0 4 34 -5 88
-24z m551 -7 c-36 -35 -99 -108 -99 -115 -1 -4 -11 -20 -24 -35 l-23 -29 -23
39 c-13 21 -34 50 -48 65 -23 25 -23 28 -8 49 9 13 16 18 16 10 0 -16 67 -7
120 16 36 16 102 32 109 26 2 -1 -7 -13 -20 -26z m4531 -23 c8 -8 8 -18 -1
-36 l-11 -25 -60 18 c-33 11 -72 19 -86 19 -42 0 -72 11 -72 26 0 11 22 13
110 11 61 -1 114 -7 120 -13z m-342 -11 c-2 -13 -16 -19 -49 -23 -26 -3 -82
-23 -125 -44 -128 -63 -264 -216 -264 -296 0 -34 -17 -30 -62 18 -44 46 -44
48 -29 73 48 77 195 196 211 169 11 -18 29 -4 23 18 -3 15 6 23 44 39 69 30
111 41 167 48 28 3 52 8 55 10 12 12 32 3 29 -12z m-1106 -38 c-28 -25 -54
-55 -57 -65 -4 -11 -17 -23 -30 -26 -13 -3 -31 -14 -41 -25 -16 -18 -16 -19 2
-19 11 0 24 4 30 10 6 6 9 -25 9 -83 0 -79 4 -102 29 -162 44 -106 103 -169
242 -263 27 -18 -278 -11 -321 8 -16 7 -46 20 -65 28 -19 8 -50 27 -68 40 -37
28 -112 137 -112 162 0 9 -5 21 -11 27 -14 14 -24 121 -15 166 9 46 79 125
143 159 68 37 215 79 302 87 7 0 -10 -19 -37 -44z m-3501 13 c56 -31 51 -46
-13 -40 -29 2 -55 6 -57 8 -8 7 10 54 20 54 6 0 29 -10 50 -22z m5065 -20 c57
-38 66 -63 31 -79 -21 -10 -30 -6 -73 26 -27 21 -51 39 -53 41 -5 5 30 44 39
44 4 0 30 -15 56 -32z m-5833 -25 c3 -5 8 -44 12 -88 l7 -80 -54 -3 c-76 -4
-126 -19 -182 -55 -51 -32 -85 -88 -86 -139 0 -18 -7 -29 -22 -34 -12 -3 -34
-20 -49 -37 -16 -17 -32 -28 -35 -24 -4 4 0 15 9 25 21 23 21 32 2 32 -53 0
42 242 123 314 34 30 125 69 118 51 -9 -25 30 -18 51 9 11 13 28 26 39 29 31
8 62 8 67 0z m-502 -62 l56 -44 -21 -47 c-21 -48 -21 -48 -81 -54 -32 -3 -77
-15 -98 -26 l-38 -20 6 22 c23 75 100 222 114 216 3 -2 31 -23 62 -47z m848
30 c73 -35 89 -45 115 -67 27 -24 28 -26 11 -45 -22 -24 -13 -36 17 -22 25 11
48 7 48 -8 0 -5 -18 -9 -39 -9 -22 0 -52 -5 -67 -10 -35 -14 -39 -8 -13 21 19
22 19 24 3 28 -18 3 -73 -53 -74 -75 0 -10 -109 -84 -124 -84 -3 0 -6 18 -6
40 0 28 4 40 14 40 8 0 24 14 36 30 21 29 21 30 2 30 -11 0 -26 -7 -33 -16
-12 -15 -14 -14 -20 7 -4 13 -7 50 -8 81 -1 44 3 59 17 68 17 10 91 5 121 -9z
m444 -26 c30 -12 37 -20 32 -33 -7 -17 -18 -49 -34 -101 l-9 -28 29 14 c33 17
47 35 31 41 -19 6 -14 22 6 22 10 0 23 5 29 11 16 16 43 -28 43 -72 0 -25 -9
-48 -30 -74 -49 -61 -37 -105 29 -105 27 0 44 9 72 36 21 20 42 33 47 30 15
-9 45 -104 38 -122 -5 -13 -9 -13 -35 1 -38 19 -92 19 -156 0 -74 -23 -102
-13 -115 38 -18 75 -42 141 -62 170 -11 15 -17 34 -14 42 3 8 -3 17 -15 20
-10 4 -19 12 -19 18 -1 7 -19 32 -40 57 -39 44 -39 45 -17 52 35 11 148 1 190
-17z m5730 18 c4 -3 -1 -12 -11 -19 -15 -12 -14 -13 10 -14 15 0 30 4 33 10 8
13 105 -31 154 -71 132 -105 72 -199 -214 -337 -60 -28 -95 -34 -352 -57 -45
-4 -119 -13 -170 -21 l-33 -5 0 91 c0 87 1 91 25 102 36 16 43 4 52 -82 7 -74
7 -75 14 -30 4 25 8 68 8 96 1 57 3 60 81 100 30 16 102 61 160 101 58 40 120
83 138 95 19 13 39 28 45 35 13 13 50 17 60 6z m-896 -17 c4 -3 1 -12 -5 -18
-7 -7 -12 -16 -12 -20 0 -14 28 -9 44 8 9 8 16 11 16 6 0 -6 9 -8 20 -5 24 6
79 -27 119 -73 48 -54 41 -58 -40 -28 -8 3 -23 19 -33 35 -14 23 -24 29 -52
29 -40 0 -129 -39 -166 -73 -59 -54 -61 -55 -55 -22 4 17 7 59 9 95 1 36 4 69
6 74 5 9 139 3 149 -8z m-247 -4 c0 -5 -9 -17 -20 -27 -25 -22 -26 -37 -2 -33
15 3 18 -10 25 -92 9 -94 8 -95 -17 -117 l-26 -22 -49 49 c-60 60 -109 76
-184 60 -28 -6 -59 -18 -69 -27 -25 -22 -23 -8 4 27 14 19 28 28 38 25 23 -7
59 22 42 33 -14 10 -2 23 63 63 83 52 195 86 195 61z m547 -14 c15 -19 41 -95
57 -166 14 -60 14 -64 -5 -83 -28 -28 -39 -16 -39 44 0 39 -8 69 -34 119 -30
60 -32 68 -17 82 19 19 26 20 38 4z m-4327 -111 c104 -6 207 -36 235 -67 21
-23 26 -20 -95 -46 -47 -9 -134 -37 -195 -62 l-109 -44 -19 23 c-11 13 -27 33
-36 44 -21 27 -108 85 -127 85 -7 0 -14 5 -14 10 0 9 19 11 110 14 15 1 25 7
25 16 1 24 14 39 53 59 l37 19 20 -23 c18 -20 32 -24 115 -28z m728 -75 c39
-59 111 -175 162 -257 l91 -150 -51 -7 c-30 -3 -72 -18 -98 -35 l-47 -28 -85
12 c-190 27 -229 31 -310 32 -46 1 -86 4 -88 6 -2 2 13 13 35 24 134 73 247
176 296 272 35 67 35 67 46 41 14 -36 41 -151 41 -179 0 -20 -4 -22 -32 -17
l-33 5 35 -18 c27 -14 36 -26 41 -53 6 -35 6 -35 8 -4 0 16 6 35 13 42 9 9 9
15 0 24 -7 7 -12 44 -12 94 0 91 -25 190 -66 262 -45 77 -17 44 54 -66z m2390
75 c8 -9 8 -24 1 -50 -5 -20 -12 -37 -14 -37 -4 0 -57 22 -64 27 -6 4 49 73
58 73 5 0 13 -6 19 -13z m1011 -36 c14 -5 52 -15 83 -21 66 -13 65 -12 92
-165 25 -138 26 -145 18 -145 -4 -1 -110 -13 -237 -29 -126 -15 -231 -27 -232
-27 -1 1 1 54 4 119 l6 119 75 79 c41 43 79 79 84 79 5 0 22 9 36 21 26 20 27
20 35 0 5 -11 21 -24 36 -30z m-6550 -47 c-6 -32 -9 -103 -7 -157 4 -70 2
-100 -8 -108 -7 -6 -14 -6 -18 -1 -12 20 -27 167 -21 201 7 37 53 136 61 129
2 -3 -1 -31 -7 -64z m317 22 c-6 -21 -19 -37 -31 -40 -19 -5 -51 -43 -43 -52
2 -2 16 3 30 10 15 8 28 12 30 10 6 -5 -8 -117 -17 -138 -7 -15 -5 -18 7 -13
10 3 19 0 22 -9 7 -18 -15 -13 -82 17 -56 25 -92 62 -92 91 2 51 33 91 98 125
83 43 92 43 78 -1z m6574 -10 c0 -2 -7 -6 -15 -10 -8 -3 -15 -1 -15 4 0 6 7
10 15 10 8 0 15 -2 15 -4z m-1187 -60 c84 -56 75 -75 -15 -30 -40 20 -74 38
-76 39 -2 2 2 13 8 25 7 13 15 19 19 14 3 -5 32 -26 64 -48z m-4333 19 c0 -8
-9 -23 -20 -32 -11 -10 -20 -22 -20 -28 0 -7 -11 -22 -25 -35 -40 -37 -29 -72
32 -103 46 -24 56 -46 29 -68 -25 -21 -13 -38 14 -21 27 16 44 -15 30 -53 -11
-28 -78 -64 -89 -47 -9 14 -51 -4 -51 -22 0 -11 8 -12 43 -4 23 5 57 10 75 10
30 0 93 37 64 38 -7 0 -10 5 -7 10 13 21 12 93 -2 121 -14 28 -13 31 9 48 28
23 17 38 -16 23 -20 -9 -29 -8 -46 6 -20 17 -20 17 25 61 25 24 45 51 45 60 0
15 10 -3 48 -89 8 -19 19 -43 24 -53 5 -11 8 -20 6 -21 -2 -2 -12 -9 -23 -15
-18 -12 -19 -12 -1 -6 33 10 38 -18 5 -32 -35 -14 -40 -39 -6 -29 43 14 50 11
59 -23 5 -18 8 -43 6 -55 -2 -11 4 -26 12 -33 8 -6 13 -14 10 -16 -15 -14
-374 -60 -392 -50 -5 2 -8 13 -8 24 0 23 -45 96 -74 121 -12 9 -33 20 -48 23
-16 4 -28 12 -29 18 0 7 -2 30 -4 52 -4 38 -3 41 41 68 24 16 77 56 117 88 67
55 107 76 150 78 9 1 17 -6 17 -14z m-524 -23 c15 -8 24 -28 33 -68 11 -57 9
-85 -4 -45 -6 21 -9 22 -93 41 -49 11 -52 13 -31 24 29 14 40 43 13 31 -11 -4
-28 -7 -39 -7 -11 1 -27 -6 -37 -15 -10 -9 -21 -14 -24 -10 -9 9 35 47 55 47
11 0 22 4 25 9 7 11 76 7 102 -7z m1847 -37 c7 -48 -10 -145 -27 -157 -6 -4
-33 -8 -61 -8 -54 0 -219 -24 -247 -35 -21 -8 -24 5 -6 23 9 9 7 12 -10 12
-19 0 -42 25 -42 47 0 5 14 14 31 20 17 7 28 16 25 21 -3 5 22 19 57 31 34 12
105 37 157 55 52 19 100 34 106 35 6 1 14 -19 17 -44z m3364 -31 c58 -61 66
-66 96 -60 77 14 72 20 75 -76 1 -49 1 -88 0 -88 -2 -1 -91 -9 -198 -19 -158
-14 -216 -16 -302 -8 l-107 11 -22 50 c-23 55 -31 178 -12 197 7 7 25 4 54 -9
24 -11 64 -28 89 -39 l45 -20 16 -79 17 -79 1 68 1 68 33 -25 c51 -39 158 -85
212 -92 l50 -6 -63 31 c-35 17 -75 40 -89 51 -22 17 -23 20 -7 20 11 0 -1 12
-31 28 -51 27 -61 46 -51 86 7 27 58 55 100 56 22 0 42 -14 93 -66z m-1517
-155 c30 -40 62 -79 70 -88 8 -9 32 -37 53 -63 l38 -47 -35 -6 c-29 -6 -41 -2
-73 23 -56 45 -114 72 -150 72 l-33 0 0 152 0 152 38 -62 c20 -34 62 -94 92
-133z m-4418 51 c-2 -18 2 -21 19 -17 21 6 64 -14 85 -40 9 -11 4 -25 -23 -66
-19 -29 -38 -53 -43 -55 -11 -4 -37 66 -45 123 -4 28 -9 58 -12 69 -3 12 -1
17 8 14 8 -3 13 -15 11 -28z m1783 20 c10 -16 18 -200 9 -200 -5 1 -20 7 -34
15 -14 8 -45 14 -70 15 l-45 0 48 45 c51 50 81 99 73 121 -6 16 10 19 19 4z
m1704 -151 c17 -63 31 -118 31 -124 -1 -21 -30 58 -55 152 -38 143 -38 142
-21 112 8 -14 28 -77 45 -140z m-3012 119 c30 -28 85 -41 180 -44 88 -2 93 0
110 51 l10 30 12 -45 c6 -25 16 -55 21 -68 13 -29 5 -42 -24 -42 -13 0 -31 -9
-41 -20 -18 -19 -17 -20 1 -20 11 0 25 5 32 12 9 9 12 7 12 -11 0 -12 5 -32
11 -43 8 -14 8 -23 0 -31 -19 -19 -12 -26 19 -24 34 2 34 3 15 37 -15 27 -20
70 -7 70 4 0 20 -32 36 -71 21 -53 25 -73 16 -79 -9 -6 -100 -21 -258 -44 -34
-5 -182 117 -214 177 -8 16 -7 18 9 14 54 -16 173 -35 207 -34 28 2 43 8 53
25 14 20 14 22 -2 22 -10 0 -26 -7 -35 -15 -15 -13 -23 -13 -74 0 -70 18 -142
54 -110 55 11 0 29 9 39 20 18 19 17 20 -6 20 -13 0 -37 -7 -52 -15 -25 -13
-30 -12 -47 5 -32 32 -26 68 12 85 35 14 41 13 75 -17z m1218 21 c14 -21 -162
-165 -180 -148 -8 9 -23 124 -16 131 3 4 38 10 76 13 38 4 72 8 74 11 8 8 40
4 46 -7z m-1790 -116 c10 -27 36 -75 57 -108 32 -48 38 -63 29 -77 -18 -28
-14 -40 9 -28 17 9 25 5 53 -22 18 -18 57 -54 86 -79 l53 -47 -31 -7 c-35 -7
-54 2 -116 56 -25 22 -34 37 -30 50 5 14 2 17 -9 13 -9 -3 -21 5 -33 23 -9 15
-20 30 -24 33 -11 9 -77 158 -84 191 -6 27 3 46 21 49 1 0 9 -21 19 -47z m340
-2 c3 -10 23 -38 45 -62 22 -24 40 -52 40 -61 0 -10 7 -18 16 -18 9 0 42 -19
73 -42 31 -24 68 -50 81 -59 14 -9 22 -20 19 -23 -4 -4 -67 -23 -140 -42 -150
-39 -156 -38 -211 25 -37 42 -27 48 48 26 31 -9 59 -14 62 -11 2 3 -4 8 -14
12 -115 39 -189 114 -156 159 4 6 19 16 35 22 15 7 27 20 27 30 0 20 38 63 56
63 7 0 15 -8 19 -19z m7790 -32 c85 -24 142 -125 110 -193 -9 -18 -31 -47 -49
-65 l-33 -32 -12 58 c-15 78 -60 153 -118 199 -26 21 -52 42 -58 47 -13 12
105 2 160 -14z m-7032 -28 c16 -14 38 -41 49 -60 22 -35 15 -50 -22 -51 -8 0
-25 -3 -37 -6 -16 -4 -23 0 -28 16 -4 12 -2 27 4 33 16 16 14 27 -4 21 -8 -4
-15 -2 -15 2 0 5 -4 26 -9 47 -9 36 -8 37 12 31 12 -3 35 -18 50 -33z m4580 2
c-13 -2 -35 -2 -50 0 -16 2 -5 4 22 4 28 0 40 -2 28 -4z m-3798 -23 c4 -6 -18
-11 -57 -12 -122 -4 -158 -6 -182 -12 -14 -3 -28 -2 -31 4 -3 5 -3 10 2 11 4
0 30 3 58 5 27 3 51 7 54 9 9 10 150 5 156 -5z m1119 -70 c81 -5 150 -11 152
-13 3 -2 -10 -29 -28 -58 -18 -30 -32 -55 -33 -55 0 -1 -119 -9 -265 -18 -146
-10 -373 -26 -505 -37 -199 -16 -1012 -59 -1121 -59 -25 0 -34 7 -53 41 -13
22 -21 41 -20 43 16 10 336 61 435 70 23 1 45 5 50 8 10 7 238 35 349 43 17 2
109 10 205 19 96 8 200 17 230 19 123 7 464 6 604 -3z m359 -107 c-13 -2 -33
-2 -45 0 -13 2 -3 4 22 4 25 0 35 -2 23 -4z m-2269 -93 l26 -40 -22 -4 c-13
-3 -84 -7 -158 -10 -74 -4 -226 -16 -337 -28 -199 -21 -201 -21 -248 -2 -26
11 -47 24 -47 29 1 19 33 17 82 -4 63 -27 74 -26 30 1 l-34 23 42 7 c23 4 90
12 149 18 59 6 146 15 193 20 47 5 92 7 101 4 9 -2 42 2 75 10 101 24 118 22
148 -24z m3366 -121 c0 -33 -38 -129 -64 -164 l-26 -33 -57 17 c-88 27 -128
46 -204 97 -45 31 -66 51 -60 57 10 10 390 57 404 50 4 -2 7 -13 7 -24z m-840
-64 c0 -8 -153 -81 -209 -100 -64 -21 -159 -17 -209 9 -33 17 -50 41 -38 53 4
4 95 14 204 24 234 19 252 20 252 14z m-2697 -42 c-13 -2 -33 -2 -45 0 -13 2
-3 4 22 4 25 0 35 -2 23 -4z m-243 -29 c-354 -49 -699 -129 -892 -209 -29 -12
-22 20 8 40 86 56 428 125 929 188 17 2 53 4 80 5 28 0 -29 -11 -125 -24z"/>
<path d="M7060 9960 c-13 -9 -13 -11 0 -19 9 -6 19 -6 27 1 28 23 5 39 -27 18z"/>
<path d="M7020 9905 c-7 -9 -10 -18 -7 -21 10 -10 47 7 47 22 0 19 -24 18 -40
-1z"/>
<path d="M6834 9893 c-17 -17 -17 -18 0 -21 20 -4 48 16 40 29 -8 14 -21 11
-40 -8z"/>
<path d="M6870 9705 c-10 -12 -9 -15 8 -15 11 0 25 7 32 15 10 12 9 15 -8 15
-11 0 -25 -7 -32 -15z"/>
<path d="M6480 9705 c-7 -9 -10 -19 -6 -22 8 -9 38 9 44 25 5 17 -23 15 -38
-3z"/>
<path d="M5804 9953 c-17 -17 -17 -18 0 -21 18 -4 46 14 46 29 0 15 -28 10
-46 -8z"/>
<path d="M7357 9693 c-14 -13 -6 -24 15 -21 27 4 36 28 11 28 -11 0 -23 -3
-26 -7z"/>
<path d="M7314 9636 c-10 -8 -16 -18 -12 -22 10 -9 58 12 58 26 0 14 -23 12
-46 -4z"/>
<path d="M7439 9372 c-27 -24 -29 -30 -16 -35 17 -6 77 36 77 54 0 18 -30 8
-61 -19z"/>
<path d="M2483 9003 c-17 -6 -16 -33 1 -33 17 0 38 24 29 33 -7 8 -12 8 -30 0z"/>
<path d="M5605 9209 c-23 -11 -49 -48 -41 -56 8 -8 54 24 66 47 12 22 6 24
-25 9z"/>
<path d="M1670 9565 c-7 -9 -11 -18 -8 -20 8 -9 36 5 42 21 7 19 -18 18 -34
-1z"/>
<path d="M1833 9508 c-18 -5 -33 -13 -33 -18 0 -15 56 -12 69 4 16 19 2 25
-36 14z"/>
<path d="M6179 9318 c-16 -18 -29 -36 -29 -40 0 -13 28 -9 40 5 56 66 57 67
34 67 -8 0 -28 -15 -45 -32z"/>
<path d="M6113 9233 c-13 -5 -19 -33 -7 -33 3 0 14 5 25 10 34 19 19 38 -18
23z"/>
<path d="M5322 9248 c-7 -7 -12 -15 -12 -19 0 -11 38 2 51 17 9 11 8 14 -8 14
-10 0 -24 -5 -31 -12z"/>
<path d="M5230 9108 c-12 -13 -16 -24 -10 -26 17 -6 38 5 50 27 15 30 -12 28
-40 -1z"/>
<path d="M5381 8897 c-29 -14 -39 -37 -18 -37 17 0 47 26 47 41 0 11 0 11 -29
-4z"/>
<path d="M920 9168 c-19 -20 -19 -23 -5 -26 17 -4 55 24 55 40 0 16 -29 8 -50
-14z"/>
<path d="M684 9335 c-9 -14 -14 -28 -11 -31 9 -9 46 15 57 36 17 31 -26 26
-46 -5z"/>
<path d="M1935 9300 c-18 -19 -17 -20 3 -20 18 0 52 23 52 36 0 12 -39 1 -55
-16z"/>
<path d="M2003 9193 c-17 -6 -17 -33 0 -33 14 0 37 20 37 32 0 9 -18 9 -37 1z"/>
<path d="M7717 9333 c-14 -13 -6 -24 15 -21 27 4 36 28 11 28 -11 0 -23 -3
-26 -7z"/>
<path d="M7800 9111 c-8 -5 -51 -21 -95 -36 -105 -36 -333 -150 -322 -162 9
-8 236 81 362 143 98 48 123 64 100 64 -16 0 -37 -5 -45 -9z"/>
<path d="M6520 9235 c-10 -12 -9 -15 8 -15 11 0 25 7 32 15 10 12 9 15 -8 15
-11 0 -25 -7 -32 -15z"/>
<path d="M1647 8953 c-4 -3 -7 -12 -7 -19 0 -15 35 -7 51 12 9 11 7 14 -13 14
-14 0 -28 -3 -31 -7z"/>
<path d="M1490 8935 c-7 -9 -10 -19 -6 -22 8 -9 38 9 44 25 5 17 -23 15 -38
-3z"/>
<path d="M1570 8845 c-7 -9 -10 -18 -7 -21 9 -9 45 6 51 21 7 20 -28 20 -44 0z"/>
<path d="M2787 8993 c-13 -12 -7 -23 12 -23 10 0 21 7 25 15 5 15 -24 22 -37
8z"/>
<path d="M1204 8673 c-17 -17 -17 -18 0 -21 18 -4 46 14 46 29 0 15 -28 10
-46 -8z"/>
<path d="M1119 8660 c-24 -19 -24 -19 -3 -20 24 0 50 25 36 34 -6 3 -21 -3
-33 -14z"/>
<path d="M2074 8886 c-10 -8 -16 -17 -12 -21 11 -11 48 5 48 21 0 18 -11 18
-36 0z"/>
<path d="M832 8624 c-31 -21 -28 -31 8 -26 35 5 63 42 33 42 -10 0 -29 -7 -41
-16z"/>
<path d="M7865 4170 c-112 -10 -145 -16 -531 -100 -423 -93 -806 -202 -1035
-295 -153 -63 -301 -139 -484 -250 -88 -54 -254 -153 -370 -220 -241 -140
-431 -255 -420 -255 4 0 84 37 179 81 94 45 216 102 271 126 55 25 217 102
360 173 390 192 526 242 930 341 268 65 901 182 1070 197 103 9 288 2 302 -12
12 -12 -31 -46 -107 -85 -224 -117 -706 -278 -1686 -565 -481 -141 -589 -170
-784 -212 -234 -50 -339 -77 -475 -124 -116 -40 -120 -41 -153 -26 -40 19
-123 21 -160 3 -19 -9 -52 -12 -112 -8 -85 6 -85 6 -148 59 -104 86 -155 102
-197 62 l-22 -21 -74 20 c-110 30 -567 129 -699 152 -63 11 -250 37 -415 59
-777 102 -1006 145 -1350 248 -203 61 -297 106 -414 197 -63 48 -97 83 -89 90
3 3 97 8 209 11 378 12 757 -27 1241 -127 161 -33 448 -91 638 -130 441 -90
606 -130 920 -223 313 -92 356 -107 549 -190 85 -36 156 -65 157 -63 7 7 -333
190 -426 230 -119 50 -493 195 -586 226 -183 61 -1007 273 -1344 345 -407 87
-940 142 -1282 134 -214 -6 -257 -16 -303 -70 -105 -124 125 -388 465 -533
120 -51 465 -149 670 -189 235 -46 556 -91 835 -116 127 -11 298 -27 380 -36
148 -15 838 -110 863 -119 6 -2 12 -9 12 -15 0 -7 -87 -10 -257 -10 -365 0
-562 15 -1083 80 -382 47 -417 50 -840 60 -419 10 -488 16 -635 61 -38 11 -96
35 -130 52 l-60 31 75 9 c70 8 528 2 630 -8 l45 -4 -55 14 c-59 16 -318 59
-415 71 -45 5 -55 9 -40 15 l20 8 -20 0 c-11 1 -95 8 -187 17 -155 16 -169 16
-186 1 -10 -9 -49 -21 -87 -26 -50 -7 -75 -16 -91 -33 -31 -32 -53 -149 -60
-322 -7 -164 7 -251 55 -346 l30 -60 -32 -10 -32 -10 33 4 c29 2 37 -2 58 -33
l24 -36 -22 -6 c-13 -3 42 -8 122 -12 80 -4 188 -10 240 -14 92 -8 89 -8 -95
-14 -205 -6 -249 -16 -279 -61 -78 -120 55 -291 305 -393 135 -54 311 -104
504 -141 180 -35 312 -64 350 -78 11 -4 0 4 -25 18 -25 14 -124 51 -220 82
-287 92 -466 170 -617 270 -75 50 -143 115 -143 138 0 5 110 6 263 3 329 -7
447 -23 867 -122 102 -24 249 -55 328 -69 l142 -25 154 -84 c161 -89 519 -314
596 -375 75 -60 277 -261 358 -357 42 -49 108 -126 147 -170 249 -279 342
-419 456 -683 29 -67 54 -120 57 -118 7 8 -68 269 -105 361 -63 162 -119 253
-388 632 -126 179 -309 384 -430 483 -130 106 -433 297 -640 402 -110 56 -213
108 -230 114 -16 7 -73 31 -125 54 -52 23 -140 57 -195 75 -127 42 -415 101
-565 116 -120 12 -419 7 -619 -11 -199 -18 -182 -20 -197 24 l-14 39 342 -6
c355 -7 448 -15 713 -62 269 -49 538 -131 715 -220 63 -32 210 -114 325 -183
345 -205 505 -328 771 -589 253 -249 319 -340 479 -663 114 -232 181 -407 205
-535 6 -33 13 -70 16 -82 2 -13 18 -38 34 -56 49 -56 78 -60 440 -54 222 3
320 2 320 -6 0 -6 20 10 43 34 35 35 45 53 50 91 7 50 36 113 86 188 24 35 40
48 73 57 35 9 38 11 16 12 -16 1 -28 6 -28 12 0 5 51 77 113 159 195 258 565
639 782 805 50 38 129 101 176 141 138 116 612 464 633 464 11 0 17 3 13 6 -3
4 76 60 176 127 473 312 798 475 1006 504 l43 6 -7 -34 c-12 -60 -54 -117
-127 -174 -162 -127 -297 -186 -723 -313 -165 -50 -311 -95 -325 -101 -33 -13
-7 -13 50 0 25 6 167 33 315 60 305 56 416 84 560 140 197 76 334 181 388 297
26 56 29 70 26 146 -3 70 -8 90 -27 113 -30 38 -37 53 -67 163 -42 154 -115
294 -223 429 -30 37 -52 74 -52 88 0 39 -27 80 -62 93 -19 8 -99 15 -188 18
l-154 4 79 33 c114 45 243 112 289 148 44 35 86 115 86 165 0 81 -70 158 -168
185 -73 20 -221 27 -337 17z m244 -641 c30 -5 56 -11 59 -13 28 -29 -217 -130
-502 -207 -458 -124 -712 -176 -1216 -249 -151 -22 -394 -61 -540 -85 -146
-25 -305 -49 -353 -53 l-89 -8 -15 29 c-8 16 -13 31 -11 33 2 2 69 13 149 24
183 26 254 39 522 101 650 148 1073 262 1402 378 l200 70 170 -5 c94 -3 194
-10 224 -15z m368 -383 c139 -277 140 -279 114 -271 -11 3 -55 -3 -99 -15
-118 -30 -116 -31 -153 50 -33 72 -79 123 -141 157 -24 13 -55 18 -118 18 -76
0 -93 -4 -152 -33 -80 -39 -155 -116 -196 -202 -22 -46 -31 -57 -42 -50 -8 6
-36 10 -61 10 -65 0 -109 -32 -130 -93 l-16 -47 -22 24 c-13 14 -46 34 -74 46
-88 38 -193 14 -263 -62 -37 -39 -64 -89 -64 -118 0 -26 -7 -25 -82 5 -70 28
-136 32 -197 10 -40 -14 -42 -13 -57 10 -17 26 -35 24 -66 -7 -9 -9 -24 -15
-31 -12 -9 3 -13 -2 -12 -18 1 -17 9 -24 28 -26 15 -2 27 -6 27 -9 0 -2 -22
-30 -50 -61 -28 -31 -50 -66 -50 -78 0 -21 -5 -23 -76 -26 -41 -2 -82 1 -91 5
-10 6 -21 2 -34 -12 -11 -12 -25 -21 -30 -21 -6 0 -35 -25 -64 -55 -56 -57
-58 -58 -69 -11 -5 21 -2 31 11 41 20 15 21 13 -32 30 -8 2 -12 10 -9 18 3 8
-6 18 -21 25 -32 15 -32 27 0 48 14 9 22 20 19 25 -7 12 -44 12 -44 0 0 -5 -9
-11 -20 -14 -14 -4 -25 2 -36 19 -9 13 -22 24 -29 24 -16 0 -65 38 -65 51 0 5
14 9 31 9 24 0 30 4 25 15 -8 23 59 13 87 -12 26 -24 96 -41 78 -20 -6 8 -8
17 -4 20 3 4 -3 9 -13 13 -85 27 -90 43 -28 80 48 29 38 31 -17 3 -23 -11 -47
-18 -54 -15 -16 6 -75 -21 -75 -35 0 -5 -3 -8 -7 -8 -23 4 -35 -3 -29 -16 4
-11 -2 -15 -24 -15 -17 0 -39 -9 -50 -20 -11 -11 -25 -20 -31 -20 -7 0 -17 -8
-24 -17 -11 -14 -18 -16 -41 -8 -35 13 -41 31 -13 45 17 9 23 9 29 0 6 -9 14
-8 34 5 14 9 23 22 19 28 -3 6 -1 7 6 3 14 -9 43 12 35 25 -3 5 11 9 31 9 22
0 34 4 30 10 -3 6 -1 10 4 10 6 0 10 5 9 12 -2 6 6 14 16 16 19 4 31 12 66 44
32 28 53 35 128 43 64 6 72 5 72 -10 0 -10 5 -15 13 -12 7 2 26 -13 42 -35 29
-38 36 -40 78 -23 12 5 17 2 17 -9 0 -9 -7 -16 -15 -16 -8 0 -15 -7 -15 -16 0
-10 7 -14 23 -12 12 2 21 9 19 16 -1 8 2 11 8 7 5 -3 23 2 39 11 28 16 30 16
61 -6 27 -19 30 -24 16 -32 -43 -24 0 -38 50 -15 34 14 45 47 16 47 -31 0 -97
34 -97 49 0 21 -20 24 -38 6 -17 -16 -62 -21 -52 -5 3 6 3 10 -2 11 -4 1 -25
3 -45 4 -33 3 -94 32 -85 41 10 10 293 31 304 22 15 -12 60 -7 53 6 -6 12 29
22 140 41 274 47 534 113 760 192 257 90 662 332 729 436 l24 37 25 -42 c13
-24 76 -146 139 -272z m-727 90 c-109 -57 -514 -181 -650 -200 -25 -3 23 12
105 35 141 38 522 161 555 180 8 5 20 8 25 8 6 0 -10 -10 -35 -23z m-6645
-176 c119 -58 379 -148 485 -169 86 -17 526 -79 615 -87 l80 -7 -72 -18 c-39
-10 -89 -27 -109 -37 l-38 -19 -45 27 c-69 41 -117 54 -211 54 -68 0 -94 -5
-127 -22 -23 -12 -44 -26 -48 -32 -3 -5 -25 -10 -49 -10 -97 0 -204 -52 -220
-108 -9 -31 -11 -32 -60 -32 -49 0 -228 -22 -292 -35 l-31 -7 -23 83 c-13 51
-26 135 -31 214 -4 71 -11 176 -15 233 l-7 102 39 -36 c21 -20 93 -62 159 -94z
m7038 -64 c33 -14 94 -72 86 -81 -3 -2 -21 0 -40 5 -53 16 -194 12 -237 -6
-50 -21 -99 -69 -129 -129 -27 -52 -64 -108 -74 -113 -4 -2 -5 -13 -3 -25 4
-21 4 -21 -5 -2 -19 40 -10 111 13 98 7 -4 6 -1 -2 9 -10 13 -6 25 29 77 96
144 250 215 362 167z m-2788 -56 c28 -31 12 -34 -30 -5 -35 23 -36 25 -13 25
14 0 33 -9 43 -20z m2805 -132 l35 -15 -40 -17 c-22 -10 -58 -23 -81 -30 -40
-13 -41 -13 -51 15 -8 19 -21 31 -44 37 l-34 9 25 12 c32 14 145 8 190 -11z
m-469 -28 c14 -8 18 -17 13 -34 -3 -13 -1 -40 4 -59 8 -29 7 -38 -7 -51 -16
-15 -19 -14 -36 4 -14 15 -31 20 -72 20 -53 0 -53 0 -53 31 0 17 5 39 10 49
22 41 98 62 141 40z m-4496 -14 c329 -2 630 -9 680 -14 50 -6 137 -13 195 -16
58 -3 108 -5 113 -6 4 0 7 -12 7 -27 0 -63 -9 -73 -98 -114 -108 -50 -295
-150 -290 -155 3 -2 36 10 74 26 38 16 79 30 91 30 12 0 23 4 25 9 5 13 185
101 192 94 3 -4 6 -15 6 -25 0 -10 8 -31 17 -45 13 -20 14 -28 5 -31 -7 -2
-30 -18 -51 -36 -29 -24 -48 -32 -73 -31 -49 3 -71 14 -58 30 17 20 -24 40
-42 21 -8 -7 -37 -17 -64 -20 -29 -4 -63 -17 -79 -30 l-28 -22 -41 44 c-23 25
-59 56 -81 70 -37 24 -44 25 -145 19 -58 -3 -117 -10 -131 -16 -17 -6 -30 -6
-36 0 -12 12 -44 1 -41 -15 2 -6 -18 -32 -44 -57 -41 -41 -53 -47 -96 -50 -39
-3 -49 -1 -48 11 1 8 -9 16 -20 18 -14 2 -28 17 -40 44 -33 74 -118 136 -206
152 -21 4 -37 12 -35 19 1 7 -10 13 -25 15 -34 4 -37 -15 -5 -28 12 -5 16 -9
7 -9 -8 -1 -39 -12 -67 -26 -42 -19 -53 -21 -53 -9 0 28 -142 160 -190 177
l-45 16 65 -5 c36 -3 331 -7 655 -8z m4800 0 c10 -7 16 -20 13 -28 -6 -16
-148 -71 -148 -57 0 25 45 80 73 88 43 13 41 13 62 -3z m-6144 -32 c88 -26 89
-32 9 -75 -39 -22 -77 -39 -84 -39 -8 0 -22 12 -31 27 -10 15 -32 39 -48 55
l-31 27 25 10 c37 15 99 13 160 -5z m2719 -30 c40 -4 70 -11 71 -18 1 -6 2
-27 3 -46 l3 -35 -67 1 c-37 1 -73 4 -79 8 -18 12 -41 -1 -35 -19 4 -10 0 -15
-14 -15 -12 0 -33 -5 -48 -12 -23 -11 -28 -10 -40 7 -15 20 -20 126 -6 139 4
5 37 5 75 2 37 -3 99 -9 137 -12z m1455 -5 c-27 -11 -52 -24 -55 -28 -10 -15
-49 -31 -62 -26 -7 3 -18 -4 -23 -16 -9 -19 -53 -49 -141 -95 -30 -16 -34 -16
-87 10 l-56 26 -38 -19 c-21 -11 -52 -22 -70 -26 -32 -6 -32 -6 -21 23 9 24
17 29 41 28 17 0 32 5 34 12 3 8 -6 12 -26 12 -32 0 -36 7 -25 46 4 16 13 21
37 20 18 -1 32 4 32 9 0 6 -15 9 -32 9 -18 -1 -33 3 -33 7 0 13 194 11 207 -2
13 -13 80 -8 73 6 -4 9 90 17 250 22 l45 2 -50 -20z m-732 -16 c3 -10 4 -29 2
-43 -2 -14 -4 -31 -4 -38 -1 -8 -7 -12 -13 -9 -7 2 -12 12 -10 21 3 14 -5 16
-51 11 -29 -3 -77 -11 -106 -19 -80 -21 -90 -15 -78 45 l10 49 123 0 c108 0
123 -2 127 -17z m-3742 -27 c-18 -38 -40 -46 -122 -46 -51 0 -57 5 -36 33 12
17 102 45 148 46 l26 1 -16 -34z m3336 28 c-8 -9 -127 -10 -127 -1 0 4 30 7
67 7 36 0 64 -3 60 -6z m-3242 -34 l29 -30 -63 0 c-65 0 -67 3 -33 43 21 24
34 22 67 -13z m760 15 c39 -12 39 -13 10 -14 -16 -1 -54 -12 -83 -26 l-53 -24
-29 32 c-16 18 -30 35 -30 40 0 12 142 6 185 -8z m4994 -4 c59 -31 68 -47 42
-75 l-22 -23 -37 18 c-90 47 -191 -4 -192 -96 0 -23 -3 -27 -10 -15 -5 8 -10
36 -10 62 0 36 6 54 27 79 59 69 129 87 202 50z m255 -59 c2 -4 -40 -30 -95
-59 -54 -28 -96 -46 -92 -40 55 96 156 149 187 99z m-5559 -2 c25 -11 -1 -11
-35 0 -20 6 -21 8 -5 8 11 0 29 -3 40 -8z m2925 -34 c0 -2 -7 -6 -15 -10 -8
-3 -15 -1 -15 4 0 6 7 10 15 10 8 0 15 -2 15 -4z m250 -31 c-1 -5 -12 -23 -25
-40 -24 -29 -25 -29 -39 -10 -11 15 -11 22 -3 27 14 9 -8 28 -32 28 -20 0 -2
17 24 22 25 5 75 -13 75 -27z m1439 16 c9 -6 10 -11 2 -15 -13 -8 -31 1 -31
15 0 11 11 11 29 0z m-2053 -52 c13 -15 26 -19 46 -15 l28 6 -16 -33 c-9 -17
-17 -33 -19 -35 -6 -7 -85 80 -80 88 9 15 20 12 41 -11z m2719 -9 c11 -10 25
-19 32 -21 7 -2 -17 -20 -52 -41 -47 -26 -61 -31 -52 -18 9 15 8 27 -1 53 -15
43 -15 45 6 49 23 6 43 -1 67 -22z m-4495 0 c0 -5 -12 -10 -27 -9 l-28 1 25 8
c14 4 26 8 28 9 1 1 2 -3 2 -9z m3110 -29 c19 -14 41 -29 50 -33 8 -4 -18 -6
-57 -4 -40 2 -71 1 -69 -3 2 -3 -20 -16 -50 -27 -53 -21 -55 -21 -65 -3 -8 15
-6 21 8 25 38 12 62 27 57 36 -3 4 6 8 20 8 16 0 26 6 26 14 0 23 41 16 80
-13z m-820 9 c19 -12 13 -16 -37 -24 -45 -6 -57 5 -25 23 21 13 43 13 62 1z
m-1560 -6 c33 -7 95 -62 102 -92 4 -15 -4 -17 -78 -14 -72 3 -88 0 -132 -22
-28 -14 -54 -30 -57 -36 -4 -7 -22 3 -45 24 -21 19 -48 39 -59 46 -12 6 -19
15 -16 21 12 19 86 50 106 44 11 -4 27 -1 35 5 27 23 93 34 144 24z m977 -30
c38 -29 42 -50 11 -57 -13 -2 -30 -8 -40 -11 -20 -9 -37 32 -18 44 15 10 4 30
-16 30 -8 0 -12 5 -9 10 10 17 37 11 72 -16z m319 -11 c-7 -7 -26 7 -26 19 0
6 6 6 15 -2 9 -7 13 -15 11 -17z m2045 3 c85 -27 129 -46 129 -56 0 -4 -9 -15
-19 -24 -18 -16 -20 -16 -45 7 -21 20 -91 50 -118 52 -9 0 -50 -30 -92 -66
-27 -23 -28 -29 -22 -72 5 -32 18 -60 42 -88 19 -22 34 -37 34 -32 0 5 -4 13
-9 19 -17 16 -39 94 -34 115 13 47 117 67 143 27 26 -42 48 -88 41 -88 -4 0
-46 -24 -94 -54 -83 -52 -86 -54 -93 -33 -3 12 -19 49 -34 82 -53 116 -52 111
-22 146 26 32 99 89 112 89 4 0 40 -11 81 -24z m-2106 -35 c-3 -13 -14 -31
-23 -39 -16 -13 -16 -13 1 -8 16 5 18 0 15 -46 -2 -28 -7 -53 -13 -55 -12 -3
-47 71 -50 107 -4 42 7 71 29 80 29 11 49 -7 41 -39z m-499 13 c-11 -8 -26
-14 -35 -14 -8 0 -24 -8 -35 -17 -12 -10 -8 -3 8 14 26 29 62 45 76 35 3 -2
-4 -10 -14 -18z m1195 6 c-13 -11 -32 -20 -42 -20 -11 0 -22 -6 -25 -14 -3 -7
-30 -30 -60 -51 -53 -37 -68 -53 -40 -42 10 4 13 1 9 -9 -7 -19 -13 -18 -46
10 l-28 22 26 12 c15 7 43 25 63 41 52 41 112 71 142 71 l25 -1 -24 -19z
m-4003 3 c-15 -2 -42 -2 -60 0 -18 2 -6 4 27 4 33 0 48 -2 33 -4z m217 -23
c129 -21 211 -41 400 -97 114 -33 290 -102 282 -109 -2 -2 -83 23 -179 56
-257 87 -458 136 -663 163 -29 4 -28 4 5 5 19 1 89 -7 155 -18z m3860 10 c3
-5 15 -10 26 -10 10 0 19 -3 19 -7 0 -5 -25 -8 -55 -8 -54 0 -55 0 -32 17 26
20 33 22 42 8z m-2480 -10 c3 -5 1 -10 -4 -10 -6 0 -11 5 -11 10 0 6 2 10 4
10 3 0 8 -4 11 -10z m1286 -41 c4 -19 7 -25 8 -14 1 17 3 18 11 5 19 -30 12
-41 -24 -35 -54 11 -164 -59 -203 -128 -9 -17 -12 -17 -52 5 -36 19 -39 23
-23 29 11 4 32 24 47 43 15 20 36 36 46 36 11 0 19 4 19 10 0 15 42 34 75 34
20 1 30 6 30 16 0 16 34 41 50 36 6 -1 13 -18 16 -37z m2844 27 c-20 -14 -35
-12 -35 5 0 5 12 9 27 9 26 0 26 -1 8 -14z m-2323 -7 c20 -11 19 -12 -13 -45
-35 -36 -49 -32 -49 17 0 40 21 50 62 28z m-1976 -14 c17 -13 16 -14 -13 -4
-34 11 -42 19 -20 19 7 0 22 -7 33 -15z m2125 -46 c-22 -15 -50 -42 -63 -60
-13 -17 -36 -38 -52 -46 -27 -14 -28 -17 -13 -28 21 -15 21 -31 2 -68 -8 -15
-10 -25 -5 -22 6 4 10 4 10 1 0 -3 -13 -12 -29 -20 -28 -15 -29 -15 -35 16 -3
17 -6 58 -6 92 0 59 2 64 38 97 55 53 83 69 108 63 12 -3 30 -1 40 4 10 5 24
8 31 5 8 -3 -1 -16 -26 -34z m-1077 -31 l25 -32 -57 -23 c-31 -13 -65 -28 -75
-34 -27 -15 -36 -3 -32 46 4 50 12 68 26 60 5 -4 17 -1 26 4 10 6 14 11 8 11
-5 0 -3 4 4 9 19 12 43 -1 75 -41z m-755 5 c16 -55 14 -60 -19 -66 -35 -7
-109 30 -102 51 6 19 63 52 89 52 17 0 24 -9 32 -37z m113 -21 c17 -16 24 -30
19 -36 -5 -6 -12 -33 -16 -61 l-7 -50 -15 30 c-9 17 -21 37 -29 45 -7 8 -16
39 -20 69 l-7 53 24 -12 c13 -7 36 -24 51 -38z m1375 -10 c13 -15 23 -30 23
-34 0 -16 -103 -68 -134 -68 -25 0 -38 -7 -50 -25 -20 -30 -36 -32 -36 -4 0
11 -5 29 -10 40 -14 25 1 24 23 -1 10 -12 22 -18 27 -15 13 8 13 35 0 35 -22
0 -21 31 1 50 18 14 20 19 8 20 -8 0 -24 -6 -34 -14 -10 -7 -27 -11 -37 -8
-13 3 -2 12 40 33 74 38 144 34 179 -9z m-1102 9 c17 -3 30 -13 30 -21 0 -12
12 -14 48 -13 36 2 47 -1 47 -12 0 -13 -10 -14 -57 -10 -70 7 -119 -15 -145
-64 -9 -18 -24 -38 -33 -45 -15 -11 -15 -13 -1 -25 9 -8 16 -27 16 -43 0 -24
-3 -27 -17 -19 -39 21 -52 38 -58 74 -7 35 -6 37 20 37 32 0 29 23 -3 28 -23
3 -39 40 -29 65 8 21 88 57 122 56 17 -1 44 -4 60 -8z m2401 -45 c6 -26 5 -28
-12 -22 -10 4 -39 11 -64 16 -25 5 -53 12 -63 16 -10 4 -25 0 -35 -9 -28 -24
-62 -31 -62 -13 0 10 9 16 25 16 14 0 37 7 50 16 21 14 30 14 54 4 24 -9 35
-9 58 2 33 17 39 14 49 -26z m-398 -29 c16 -44 15 -58 -3 -51 -8 4 -15 12 -15
20 0 8 -10 14 -22 14 -13 0 -31 7 -41 14 -18 14 -18 15 0 25 10 6 29 11 43 11
20 0 29 -7 38 -33z m-808 19 c0 -3 -4 -8 -10 -11 -5 -3 -10 -1 -10 4 0 6 5 11
10 11 6 0 10 -2 10 -4z m329 0 c-2 -2 -15 -9 -29 -15 -24 -11 -24 -11 -6 3 16
13 49 24 35 12z m85 -28 c21 -29 20 -45 -3 -57 -24 -13 -87 4 -100 27 -8 14
-3 20 22 34 43 23 63 22 81 -4z m-455 -95 l1 -32 -39 42 -40 42 25 15 c13 8
24 19 25 25 1 22 28 -62 28 -92z m1734 71 c-13 -9 -15 -16 -7 -24 8 -8 16 -7
29 6 17 17 19 17 41 -11 13 -17 24 -35 24 -42 0 -7 13 -27 29 -46 29 -32 29
-33 10 -45 -17 -11 -21 -8 -37 25 -9 21 -27 49 -40 63 -18 20 -25 23 -40 14
-13 -8 -18 -27 -20 -75 -2 -45 1 -60 8 -49 5 8 10 32 10 52 0 20 4 39 8 42 9
5 82 -77 81 -91 0 -4 -36 -36 -80 -71 l-80 -64 6 59 c7 66 -19 160 -56 199
-29 31 -12 61 39 69 20 4 44 7 52 9 30 5 42 -6 23 -20z m-972 -3 c13 -10 41
-21 63 -25 27 -5 35 -11 28 -18 -7 -7 -7 -16 1 -29 15 -24 4 -33 -23 -19 -14
7 -50 11 -89 8 l-67 -3 11 40 c18 70 33 80 76 46z m-2118 -33 c2 -13 8 -31 12
-41 7 -17 6 -18 -14 -6 -14 10 -21 24 -21 47 0 36 15 36 23 0z m982 6 l26 -26
-23 -18 c-13 -9 -32 -19 -43 -22 -13 -2 -19 -10 -17 -22 2 -11 -2 -22 -9 -27
-21 -13 -3 -22 19 -10 16 9 24 7 36 -5 23 -22 21 -24 -27 -24 -36 0 -46 4 -55
24 -13 29 -5 67 13 60 21 -8 30 18 11 31 -9 7 -14 19 -10 28 7 18 34 11 34 -9
0 -8 9 -14 20 -14 11 0 20 7 20 15 0 8 -4 15 -9 15 -5 0 -11 7 -15 15 -8 21
-1 19 29 -11z m-701 -5 c14 -7 27 -18 30 -25 7 -18 -69 -59 -109 -59 -23 0
-30 -4 -29 -18 1 -10 -3 -16 -10 -14 -6 2 -10 20 -8 43 5 68 64 101 126 73z
m1425 -8 c30 -23 24 -40 -24 -65 -31 -17 -38 -18 -46 -5 -14 22 -11 56 7 73
20 21 33 20 63 -3z m146 -12 c5 -14 2 -25 -6 -30 -11 -8 -11 -12 4 -23 9 -7
17 -18 17 -23 0 -11 -115 -103 -128 -103 -13 0 -78 63 -85 81 -7 20 77 67 118
64 32 -2 71 25 47 33 -15 5 -6 22 13 22 7 0 17 -10 20 -21z m-559 -40 c15 -17
15 -18 -12 -16 -19 1 -28 -2 -26 -11 2 -11 -86 -57 -94 -49 -10 9 29 96 44 99
31 6 71 -4 88 -23z m1283 5 c20 -25 20 -28 4 -41 -17 -13 -16 -14 4 -10 25 5
33 -9 33 -57 0 -37 -44 -105 -85 -132 -32 -21 -31 -63 2 -80 16 -7 19 -14 12
-21 -8 -8 -2 -11 22 -10 30 2 34 -1 37 -27 3 -20 0 -26 -9 -20 -7 4 -26 10
-43 14 -22 4 -31 12 -31 25 0 14 -7 20 -24 20 -21 0 -27 8 -41 56 -20 64 -45
113 -79 151 -23 26 -23 28 -8 61 9 18 25 41 36 51 20 18 22 18 61 -8 22 -14
46 -26 55 -26 29 0 15 20 -30 42 -24 12 -42 25 -39 30 3 4 27 8 54 8 41 0 52
-4 69 -26z m-2208 -4 c5 0 9 -9 9 -20 0 -12 -7 -20 -16 -20 -31 0 -100 -52
-115 -87 l-15 -34 -39 34 c-44 38 -41 60 8 55 23 -2 32 1 32 12 0 18 94 71
113 65 8 -3 18 -5 23 -5z m1180 -52 c6 -23 18 -48 27 -55 10 -7 13 -13 9 -13
-4 0 -20 9 -35 20 -17 13 -35 18 -45 14 -17 -6 -17 -8 -1 -25 15 -17 15 -19 1
-19 -8 0 -17 -6 -20 -12 -5 -16 -20 71 -15 92 3 16 35 39 55 40 7 0 17 -19 24
-42z m-889 5 c14 -16 33 -46 42 -67 l16 -40 -32 -33 c-36 -37 -48 -41 -48 -15
0 9 -9 34 -20 54 -12 22 -16 40 -10 43 17 10 11 25 -14 34 -13 5 -26 19 -29
30 -4 19 -1 21 32 21 28 0 44 -7 63 -27z m343 17 c3 -5 1 -10 -4 -10 -6 0 -11
5 -11 10 0 6 2 10 4 10 3 0 8 -4 11 -10z m321 -36 c-16 -11 -13 -44 4 -44 18
0 40 -33 40 -59 0 -25 -3 -28 -25 -23 -18 3 -25 0 -25 -12 0 -9 5 -16 10 -16
6 0 10 -5 10 -10 0 -6 -29 10 -65 35 -35 25 -77 50 -92 56 -27 10 -27 11 -9
25 11 8 28 14 37 14 10 0 22 8 28 17 5 10 22 18 38 19 15 1 32 3 37 3 4 1 5 8
2 17 -6 15 -4 15 10 3 14 -12 14 -14 0 -25z m61 14 c-3 -8 -6 -5 -6 6 -1 11 2
17 5 13 3 -3 4 -12 1 -19z m1351 -41 c3 -65 5 -75 22 -165 11 -58 20 -81 44
-105 l31 -32 -210 -210 c-116 -115 -248 -258 -295 -317 l-85 -106 -100 5 c-55
3 -113 12 -129 19 -16 8 -37 14 -47 14 -29 0 -116 43 -96 47 9 3 17 9 17 14 0
16 -29 22 -44 9 -16 -13 -43 -3 -65 24 -11 13 -8 14 23 9 20 -3 36 -3 36 -1 0
3 -18 17 -39 32 -31 22 -43 25 -59 17 -23 -12 -32 -6 -32 24 0 40 -69 163
-112 200 -23 19 -48 35 -55 35 -8 0 -13 12 -13 30 0 20 5 30 15 30 8 0 15 4
15 9 0 24 38 15 70 -15 63 -60 137 -121 203 -168 36 -25 68 -53 71 -61 3 -8
14 -15 25 -15 11 0 58 -18 104 -40 84 -39 214 -80 252 -80 12 1 1 8 -25 19
-163 65 -172 87 -21 52 121 -29 151 -27 76 4 -33 14 -62 25 -64 25 -3 0 9 15
25 33 53 57 58 75 51 197 -5 106 -5 110 15 110 26 0 18 24 -9 28 -13 2 -27 18
-39 44 -38 85 -115 152 -198 172 l-28 7 46 29 c57 36 63 37 78 5 11 -24 51
-41 101 -44 9 -1 24 -2 33 -3 24 -2 61 -76 82 -166 l20 -83 -24 -9 c-38 -15
-29 -36 14 -31 8 1 12 -13 12 -43 0 -57 -8 -76 -30 -76 -25 0 -50 -10 -50 -21
0 -5 11 -9 25 -9 14 0 25 -3 25 -8 0 -11 -29 -52 -64 -91 -17 -19 -25 -31 -18
-27 7 4 19 2 27 -4 18 -15 37 -4 33 19 -2 10 10 33 26 52 22 25 37 34 60 34
21 0 31 5 31 15 0 10 -8 14 -22 13 -13 -2 -23 -1 -23 1 0 11 40 89 40 79 0
-15 36 -18 45 -4 3 5 -8 17 -24 27 -29 17 -30 20 -29 91 1 69 2 74 22 71 12
-2 21 -10 21 -18 0 -9 11 -16 26 -18 71 -8 74 -81 7 -157 -51 -57 -28 -59 26
-2 53 54 81 141 73 220 -4 45 -2 57 14 70 10 9 19 21 19 27 0 14 -43 12 -60
-2 -7 -7 3 7 22 32 50 63 58 82 61 139 3 67 21 65 25 -2z m-1698 13 c0 -5 -5
-10 -11 -10 -5 0 -7 5 -4 10 3 6 8 10 11 10 2 0 4 -4 4 -10z m1125 -11 c5 -6
2 -9 -8 -9 -10 0 -20 -7 -23 -15 -7 -18 -84 -65 -107 -65 -8 0 -17 -5 -19 -10
-2 -6 -21 -13 -43 -16 -95 -13 -203 -77 -236 -138 -24 -45 -63 -74 -74 -55
-11 18 38 102 88 151 38 37 56 48 81 48 40 0 51 9 29 25 -15 11 -12 15 24 33
29 15 43 18 51 10 15 -15 45 -1 38 17 -4 10 5 16 32 20 20 4 53 10 72 14 37 9
79 4 95 -10z m-778 -21 c-3 -7 -5 -2 -5 12 0 14 2 19 5 13 2 -7 2 -19 0 -25z
m-413 -64 c5 -14 4 -15 -8 -5 -23 19 -49 2 -41 -28 7 -28 24 -43 41 -37 6 3
11 -3 10 -12 -1 -11 8 -18 22 -20 12 -2 20 -8 17 -13 -4 -5 4 -13 17 -18 13
-5 54 -39 91 -75 38 -36 74 -66 81 -66 38 0 54 -66 27 -111 l-18 -30 -34 68
c-74 150 -130 185 -263 169 -52 -7 -87 -27 -141 -82 -11 -11 -28 -24 -38 -27
-12 -5 -16 -13 -13 -25 7 -20 -19 -92 -32 -92 -4 0 -15 13 -25 29 -22 38 -23
117 -1 125 10 4 13 13 9 25 -11 35 82 161 118 161 29 0 75 28 82 49 9 30 89
42 99 15z m139 -11 c18 -10 36 -24 40 -30 11 -17 36 -16 43 1 4 11 12 12 35 4
16 -5 29 -16 29 -22 0 -25 35 -44 77 -43 30 1 39 5 32 13 -6 8 -4 14 6 18 12
4 15 -1 13 -25 -2 -23 -6 -29 -19 -26 -11 3 -19 -2 -22 -14 -3 -11 -12 -19
-21 -19 -19 0 -21 -11 -5 -27 7 -7 3 -25 -15 -61 -14 -28 -30 -53 -34 -56 -12
-7 -44 28 -40 45 2 7 -6 15 -17 17 -11 2 -34 18 -51 36 -58 58 -114 106 -125
106 -5 0 -8 4 -4 9 3 5 -3 16 -13 23 -10 7 -22 19 -26 27 -7 10 -4 12 12 7 15
-5 24 -1 32 14 13 25 32 25 73 3z m374 -30 c-3 -10 -5 -2 -5 17 0 19 2 27 5
18 2 -10 2 -26 0 -35z m101 35 c10 -10 17 -10 32 0 17 10 25 9 45 -4 14 -9 25
-18 25 -20 0 -3 -11 -21 -24 -42 -13 -21 -27 -57 -31 -80 -4 -23 -11 -42 -15
-42 -5 0 -22 12 -37 26 -15 14 -38 34 -50 44 -19 15 -21 23 -16 73 5 54 7 57
32 57 15 0 33 -6 39 -12z m-1129 -89 c64 -56 73 -63 87 -69 10 -4 9 -12 -2
-38 l-14 -34 -64 56 c-60 53 -85 94 -71 116 9 15 15 13 64 -31z m1641 -33 c44
-23 92 -80 105 -123 10 -37 -20 -28 -44 12 -23 40 -54 55 -114 55 -42 0 -107
-30 -107 -50 0 -7 -6 -8 -19 0 -13 7 -22 7 -26 0 -10 -16 6 -32 26 -27 11 3
19 1 19 -4 0 -8 -23 -14 -44 -10 -4 1 -28 -8 -52 -20 -53 -25 -70 -21 -82 23
-12 43 1 66 44 84 19 8 34 18 34 22 0 8 70 43 110 56 40 13 108 5 150 -18z
m-702 -134 c16 -124 16 -122 -8 -122 -11 0 -20 -4 -20 -10 0 -5 -3 -9 -7 -9
-20 3 -33 -2 -33 -13 0 -7 -13 -20 -29 -29 l-29 -17 8 27 c4 14 15 42 23 61 8
19 25 76 37 127 15 57 28 89 35 87 6 -3 17 -48 23 -102z m137 21 c13 -16 25
-33 25 -39 0 -15 -29 -39 -37 -31 -7 8 -22 97 -16 97 2 0 15 -12 28 -27z
m-540 6 c-34 -11 -56 -17 -69 -18 -4 -1 -6 -7 -3 -15 3 -8 -1 -20 -9 -26 -8
-7 -14 -19 -14 -26 0 -19 -10 -18 -25 3 -7 9 -19 14 -29 10 -22 -9 -20 -24 4
-32 29 -9 25 -19 -19 -54 -32 -26 -41 -28 -55 -18 -16 12 -15 16 8 58 48 85
115 128 201 127 40 0 40 0 10 -9z m1142 -11 c26 -24 29 -38 9 -38 -7 0 -30
-11 -50 -25 -36 -24 -38 -25 -61 -8 -32 24 -48 59 -32 71 37 29 103 29 134 0z
m-1054 -45 c3 -5 8 -24 12 -43 7 -34 7 -34 -12 -18 -10 9 -38 20 -61 24 l-43
7 28 18 c29 19 68 25 76 12z m75 -69 c-10 -10 -28 6 -28 24 0 15 1 15 17 -1 9
-9 14 -19 11 -23z m1068 0 c7 -28 -1 -40 -30 -46 -29 -5 -25 -23 7 -26 15 -2
27 -9 27 -16 0 -32 -81 -77 -105 -59 -17 13 -35 62 -29 78 7 17 40 20 49 5 3
-5 1 -10 -4 -10 -6 0 -11 -4 -11 -9 0 -14 30 -22 47 -13 11 7 7 14 -22 36 -35
27 -36 28 -18 48 38 42 80 48 89 12z m-248 -9 c24 -20 29 -32 28 -65 0 -22 -4
-40 -9 -40 -14 0 -136 95 -137 107 -1 31 80 30 118 -2z m-958 -38 c25 -19 60
-69 60 -83 0 -11 -5 -11 -25 -2 -18 8 -22 14 -14 24 12 15 -2 26 -35 28 -14 1
-21 8 -22 24 -1 24 13 28 36 9z m180 -20 c-1 -14 -28 -53 -33 -46 -16 23 -24
58 -15 67 13 13 48 -2 48 -21z m-426 -41 c-13 -35 -40 -1 -28 36 6 19 6 19 20
0 8 -11 11 -27 8 -36z m189 -70 c23 -21 58 -45 77 -54 l35 -14 -60 -55 c-32
-29 -66 -52 -74 -51 -8 2 -21 15 -30 29 -41 66 -90 136 -105 148 -20 17 -4 41
23 34 23 -6 36 13 21 32 -8 10 -6 17 11 29 21 14 23 13 41 -22 10 -20 38 -54
61 -76z m466 22 c7 -51 15 -104 18 -118 26 -138 30 -176 22 -184 -5 -6 -3 -16
6 -26 8 -9 19 -45 24 -81 6 -35 12 -75 15 -89 3 -14 8 -37 11 -52 5 -22 2 -27
-17 -30 -30 -4 -26 -22 6 -26 20 -3 26 -10 31 -45 4 -23 14 -63 22 -89 8 -27
13 -62 11 -80 -3 -18 0 -38 7 -45 7 -6 16 -47 19 -90 4 -43 10 -86 12 -95 5
-16 -3 -18 -80 -18 l-84 0 -7 30 c-4 16 -5 43 -4 59 2 16 -3 36 -10 45 -11 13
-15 56 -17 169 -3 200 4 287 22 280 8 -3 21 -2 30 1 23 9 -3 38 -27 31 -15 -5
-19 1 -23 37 -14 112 -15 144 -7 157 5 8 3 24 -5 40 -8 14 -14 52 -14 84 0 72
-11 93 -51 102 -32 7 -69 -15 -69 -42 0 -7 -11 -18 -25 -23 -27 -10 -31 -20
-14 -37 11 -11 1 -32 -66 -136 -11 -18 -29 -47 -40 -64 -11 -18 -23 -33 -27
-33 -4 0 -24 21 -44 46 l-38 46 40 33 c21 18 42 31 46 29 14 -9 39 9 33 24 -3
8 9 32 29 57 19 23 45 63 57 88 13 26 29 47 36 47 7 0 13 7 13 15 0 17 69 55
100 55 11 0 20 5 20 10 0 6 6 10 13 10 9 0 17 -30 26 -92z m661 -94 c0 -2 -9
0 -20 6 -11 6 -20 13 -20 16 0 2 9 0 20 -6 11 -6 20 -13 20 -16z m-128 -276
c55 -8 95 -8 161 1 49 7 91 11 93 8 3 -3 -30 -51 -73 -108 -131 -175 -256
-371 -308 -483 -35 -75 -55 -106 -67 -106 -23 0 -22 2 2 50 11 22 18 40 16 40
-15 0 82 211 127 277 13 19 32 33 46 35 27 3 42 28 17 28 -9 0 -16 4 -16 9 0
17 90 129 138 173 60 54 77 79 31 48 -96 -67 -165 -129 -235 -214 -43 -52 -86
-97 -97 -100 -10 -2 -16 -9 -12 -15 4 -7 -4 -11 -19 -11 -28 0 -34 -14 -12
-27 13 -7 12 -12 -4 -33 -19 -25 -19 -22 -18 245 l2 270 78 -38 c50 -25 103
-42 150 -49z m-657 20 c4 -24 9 -50 10 -58 1 -8 6 -35 10 -60 9 -51 9 -48 25
-185 17 -139 17 -141 34 -225 8 -41 21 -91 29 -110 28 -66 30 -80 12 -80 -10
0 -28 28 -50 76 -19 42 -35 81 -35 86 0 10 -56 133 -90 198 -10 19 -20 53 -23
76 -6 40 -5 41 20 36 19 -4 24 -1 21 9 -3 8 -17 13 -32 12 -14 -1 -26 3 -26 8
0 5 -9 29 -21 54 l-21 45 46 70 c26 38 51 70 56 70 6 0 10 7 10 16 0 30 18 4
25 -38z m0 -584 c19 -33 24 -49 16 -58 -13 -15 -5 -26 20 -26 9 0 24 -11 33
-25 16 -25 16 -25 -16 -25 -18 0 -38 4 -43 8 -6 4 -19 39 -29 77 -10 39 -21
79 -24 89 -8 31 13 11 43 -40z"/>
<path d="M6731 2716 c-15 -18 1 -30 29 -21 24 8 26 21 4 29 -21 8 -20 8 -33
-8z"/>
<path d="M6460 2700 c0 -5 4 -10 9 -10 6 0 13 5 16 10 3 6 -1 10 -9 10 -9 0
-16 -4 -16 -10z"/>
<path d="M6801 2687 c-9 -12 -8 -16 4 -21 20 -7 47 4 42 18 -6 17 -32 19 -46
3z"/>
<path d="M6182 2678 c5 -15 37 -18 41 -3 1 6 -9 12 -22 13 -16 3 -22 -1 -19
-10z"/>
<path d="M6651 2661 c-15 -10 -8 -41 9 -41 15 0 25 29 14 40 -5 5 -15 5 -23 1z"/>
<path d="M6955 2620 c-8 -13 20 -24 40 -16 8 3 15 10 15 16 0 13 -47 13 -55 0z"/>
<path d="M6265 2610 c-8 -13 20 -24 41 -16 20 8 9 26 -16 26 -10 0 -22 -5 -25
-10z"/>
<path d="M6325 2569 c-8 -12 14 -31 30 -26 6 2 10 10 10 18 0 17 -31 24 -40 8z"/>
<path d="M6480 2535 c-7 -8 -27 -19 -44 -23 -17 -5 -31 -13 -31 -20 0 -6 -15
-23 -34 -37 -42 -30 -34 -32 19 -5 22 11 46 20 55 20 8 0 20 11 26 24 7 14 17
22 25 19 22 -8 37 7 23 23 -15 18 -23 18 -39 -1z"/>
<path d="M6218 2503 c-30 -19 -34 -28 -17 -39 14 -8 80 27 76 41 -6 17 -30 16
-59 -2z"/>
<path d="M6069 2499 c-11 -6 -11 -11 -2 -20 12 -12 43 -6 43 10 0 14 -25 20
-41 10z"/>
<path d="M6549 2489 c-11 -6 -11 -11 -2 -20 12 -12 43 -6 43 10 0 14 -25 20
-41 10z"/>
<path d="M6490 2435 c0 -11 7 -15 23 -13 12 2 22 8 22 13 0 6 -10 11 -22 13
-16 2 -23 -2 -23 -13z"/>
<path d="M6271 2431 c-16 -10 -6 -31 15 -31 8 0 14 -4 14 -10 0 -12 37 -13 44
-2 3 5 -8 19 -24 30 -33 25 -31 24 -49 13z"/>
<path d="M6195 2391 c-8 -14 28 -31 44 -21 8 4 10 13 7 19 -9 13 -43 15 -51 2z"/>
<path d="M6245 2360 c-4 -7 -3 -16 3 -22 14 -14 45 -2 40 15 -6 16 -34 21 -43
7z"/>
<path d="M5797 2674 c-16 -16 -5 -25 26 -22 17 2 31 8 30 13 -3 12 -46 19 -56
9z"/>
<path d="M5600 2650 c-13 -9 -13 -11 0 -20 8 -5 20 -10 25 -10 6 0 17 5 25 10
13 9 13 11 0 20 -8 5 -19 10 -25 10 -5 0 -17 -5 -25 -10z"/>
<path d="M5680 2611 c-12 -9 -12 -11 2 -16 21 -8 48 -3 51 10 3 14 -34 17 -53
6z"/>
<path d="M5100 2644 c0 -9 7 -14 17 -12 25 5 28 28 4 28 -12 0 -21 -6 -21 -16z"/>
<path d="M3931 2290 c-8 -4 -10 -13 -7 -19 9 -13 43 -15 51 -2 8 14 -28 31
-44 21z"/>
<path d="M3324 2258 c-3 -5 -2 -14 4 -20 12 -12 42 -4 42 11 0 13 -39 21 -46
9z"/>
<path d="M6451 2096 c-9 -10 -8 -15 4 -20 8 -3 22 -3 30 0 12 5 13 10 4 20 -6
8 -15 14 -19 14 -4 0 -13 -6 -19 -14z"/>
<path d="M5246 2041 c-9 -15 23 -36 36 -23 5 5 7 15 4 21 -9 13 -33 14 -40 2z"/>
<path d="M5867 1944 c-11 -12 3 -24 29 -24 16 0 24 5 22 13 -5 13 -40 22 -51
11z"/>
<path d="M4082 1931 c-18 -11 10 -34 32 -25 20 8 21 20 0 28 -19 7 -16 7 -32
-3z"/>
<path d="M4670 1943 c0 -5 12 -19 26 -32 18 -18 28 -21 36 -13 9 9 7 17 -7 32
-17 19 -55 28 -55 13z"/>
<path d="M5045 1481 c-8 -14 28 -31 44 -21 8 4 10 13 7 19 -9 13 -43 15 -51 2z"/>
<path d="M5210 1346 c0 -11 9 -16 26 -16 31 0 28 23 -4 28 -15 2 -22 -2 -22
-12z"/>
<path d="M5447 1234 c-11 -11 3 -24 24 -24 12 0 19 5 17 13 -5 14 -31 21 -41
11z"/>
<path d="M5344 1175 c-18 -13 -17 -14 17 -15 19 0 44 7 55 15 18 13 17 14 -17
15 -19 0 -44 -7 -55 -15z"/>
<path d="M5545 1149 c-8 -12 14 -31 30 -26 6 2 10 10 10 18 0 17 -31 24 -40 8z"/>
<path d="M4280 1775 c0 -8 7 -15 15 -15 8 0 15 -4 15 -10 0 -5 14 -10 30 -10
34 0 41 19 10 27 -11 3 -20 9 -20 14 0 5 -11 9 -25 9 -16 0 -25 -6 -25 -15z"/>
<path d="M4224 1735 c8 -22 -32 -45 -65 -38 -22 4 -29 2 -29 -10 0 -9 9 -21
21 -27 23 -13 54 -6 44 9 -8 14 39 43 59 35 9 -3 24 -3 33 1 16 6 15 8 -7 25
-30 24 -65 27 -56 5z"/>
<path d="M4115 1539 c-4 -6 -5 -13 -2 -16 7 -7 27 6 27 18 0 12 -17 12 -25 -2z"/>
<path d="M4656 1802 c-9 -15 54 -56 67 -43 7 7 5 16 -8 31 -19 20 -50 27 -59
12z"/>
<path d="M4305 1360 c-8 -13 20 -24 41 -16 20 8 9 26 -16 26 -10 0 -22 -5 -25
-10z"/>
<path d="M4384 1299 c-3 -6 6 -22 22 -35 34 -27 34 -27 54 -13 10 7 11 12 3
15 -6 3 -21 14 -34 25 -25 22 -35 24 -45 8z"/>
<path d="M4877 634 c-11 -12 3 -24 29 -24 16 0 24 5 22 13 -5 13 -40 22 -51
11z"/>
<path d="M5260 980 c-11 -7 -12 -12 -3 -21 14 -14 46 -4 41 13 -6 16 -20 19
-38 8z"/>
<path d="M5233 813 c9 -9 19 -14 23 -11 10 10 -6 28 -24 28 -15 0 -15 -1 1
-17z"/>
<path d="M4690 935 c-8 -10 -6 -15 9 -20 22 -7 41 0 41 14 0 15 -39 19 -50 6z"/>
</g>
</svg>
