<svg width="53" height="53" viewBox="0 0 53 53" fill="none" xmlns="http://www.w3.org/2000/svg">
<path d="M50.7087 38.5501V45.9352C50.7114 46.6208 50.5717 47.2994 50.2985 47.9276C50.0252 48.5558 49.6244 49.1196 49.1218 49.5831C48.6192 50.0466 48.0258 50.3995 47.3797 50.6191C46.7335 50.8388 46.0489 50.9203 45.3696 50.8586C37.8332 50.0355 30.5939 47.447 24.2335 43.3012C18.316 39.5216 13.299 34.4788 9.53872 28.5309C5.39963 22.1088 2.82379 14.797 2.01988 7.18782C1.95868 6.50707 2.03917 5.82098 2.25622 5.17321C2.47328 4.52545 2.82214 3.93021 3.28061 3.42539C3.73908 2.92057 4.2971 2.51723 4.91914 2.24106C5.54119 1.96489 6.21363 1.82193 6.89366 1.82128H14.2411C15.4296 1.80953 16.5819 2.23258 17.4831 3.0116C18.3843 3.79062 18.973 4.87245 19.1393 6.05543C19.4494 8.41884 20.0246 10.7394 20.8537 12.9728C21.1832 13.854 21.2546 14.8115 21.0592 15.7321C20.8639 16.6527 20.4101 17.4978 19.7516 18.1671L16.6412 21.2934C20.1277 27.4565 25.2045 32.5593 31.336 36.0637L34.4464 32.9373C35.1123 32.2755 35.953 31.8194 36.8689 31.623C37.7848 31.4267 38.7375 31.4984 39.6141 31.8296C41.8361 32.663 44.1448 33.2411 46.4962 33.5528C47.6859 33.7215 48.7724 34.3238 49.5491 35.2452C50.3258 36.1666 50.7385 37.3428 50.7087 38.5501Z" stroke="#C82132" stroke-width="3.31818" stroke-linecap="round" stroke-linejoin="round"/>
</svg>
